<?xml version="1.0" encoding="UTF-8"?>
<svg width="36px" height="36px" viewBox="0 0 36 36" version="1.1" xmlns="http://www.w3.org/2000/svg" xmlns:xlink="http://www.w3.org/1999/xlink">
    <title>编组备份</title>
    <g id="部分控件" stroke="none" stroke-width="1" fill="" fill-rule="evenodd">
        <g id="编组备份">
            <rect id="矩形" fill="" opacity="0" x="0" y="0" width="36" height="36"></rect>
            <path d="M14.5329814,4.5 C14.904529,4.5 15.251325,4.68662942 15.4564603,4.99697329 L17.7789411,8.5109548 C17.8595202,8.63287334 18.0236769,8.66638557 18.1455955,8.58580648 C18.1753239,8.56615816 18.2007775,8.54070764 18.2204295,8.51098155 L20.5435397,4.99697329 C20.71937,4.73096426 20.9992775,4.55584748 21.3096402,4.51124287 L21.4670186,4.5 L28.8905402,4.5 C29.7267176,4.5 30.2436873,5.38230247 29.8839163,6.10143118 L29.8112127,6.2264296 L25.2584264,13.0459302 C27.4859738,14.9776121 28.8913647,17.8066739 28.8913647,20.9589041 C28.8913647,26.7805906 24.0977968,31.5 18.1846312,31.5 C12.2714656,31.5 7.47789772,26.7805906 7.47789772,20.9589041 C7.47789772,17.9175647 8.78614857,15.1770565 10.8788282,13.253098 L6.18878727,6.2264296 C5.69659728,5.48915572 6.22409547,4.5 7.10945978,4.5 L14.5329814,4.5 Z M18.3215028,15.7591003 L18.2908322,15.8056063 L16.7869687,18.9232069 C16.7642624,18.9702784 16.724987,19.0064573 16.6776398,19.0255698 L16.6279167,19.038765 L13.198183,19.5056326 C13.1516539,19.5119663 13.1086443,19.5338808 13.0761712,19.5678007 C13.0127131,19.6340861 13.001855,19.7314854 13.0424727,19.8084069 L13.0825701,19.8614523 L15.5828651,22.2551031 C15.6206161,22.2912439 15.6428875,22.3397769 15.6464335,22.3907129 L15.6436176,22.4420799 L15.0277891,25.8482206 C15.0194345,25.8944296 15.0269857,25.942106 15.0492107,25.9834717 C15.0944519,26.0676754 15.1894385,26.1080305 15.2783188,26.0877258 L15.3304674,26.0681292 L18.3795982,24.4298862 C18.4256359,24.405151 18.4786757,24.3989672 18.5282145,24.4113348 L18.5761973,24.4298862 L21.6253281,26.0681292 C21.6666938,26.0903543 21.7143702,26.0979055 21.7605792,26.0895509 C21.8546419,26.0725444 21.9223744,25.9946772 21.930529,25.9038725 L21.9280064,25.8482206 L21.3121779,22.4420799 C21.3028797,22.3906519 21.3133888,22.3382971 21.3404594,22.2950047 L21.3729303,22.2551031 L23.8732253,19.8614523 C23.9071453,19.8289791 23.9290597,19.7859696 23.9353934,19.7394405 C23.9482863,19.6447262 23.8951606,19.5562465 23.8113201,19.5204309 L23.7576125,19.5056326 L20.3278787,19.038765 C20.2760944,19.0317159 20.2295495,19.0055427 20.1967413,18.9664189 L20.1688267,18.9232069 L18.6649632,15.8056063 C18.6445612,15.7633118 18.6104287,15.7291792 18.5681341,15.7087772 C18.4820396,15.6672471 18.3814736,15.6904309 18.3215028,15.7591003 Z" id="形状结合" fill=""></path>
        </g>
    </g>
</svg>