<?xml version="1.0" encoding="UTF-8"?>
<svg width="36px" height="36px" viewBox="0 0 36 36" version="1.1" xmlns="http://www.w3.org/2000/svg" xmlns:xlink="http://www.w3.org/1999/xlink">
    <title>编组备份</title>
    <g id="部分控件" stroke="none" stroke-width="1" fill="" fill-rule="evenodd">
        <g id="编组备份">
            <path d="M20.0006615,4.30555378 L20.1287862,4.42856837 L26.5145743,11.4498593 C26.958933,11.9385067 26.9606825,12.6799127 26.546283,13.1696265 L26.4229671,13.2965655 L25.0488584,14.5416643 C24.5590142,14.9849372 23.8189994,14.9866824 23.3256806,14.5732955 L23.1781057,14.4282671 L19.6913306,17.5604838 L20.8616441,18.8519145 L21.0257738,18.7072241 C21.2595631,18.4973279 21.6073247,18.485667 21.8517076,18.6645889 L21.9494801,18.7529158 L31.3277714,29.075432 C31.5448615,29.30865 31.5544636,29.6584771 31.369363,29.9055424 L31.2781508,30.0044965 L29.2551576,31.8321644 C29.0213683,32.0420607 28.6736067,32.0537216 28.4292238,31.8747996 L28.3314512,31.7864727 L18.945526,21.4601489 C18.7351156,21.2269309 18.7234262,20.880019 18.9027864,20.6362333 L18.9913296,20.5386997 L19.1554593,20.3940093 L17.9797001,19.0973494 L14.492925,22.2295661 L14.5369275,22.2787918 C14.9812863,22.7674392 14.9830357,23.5056457 14.5686362,23.9977591 L14.4453203,24.125498 L13.0712117,25.3705968 C12.5848663,25.8138697 11.8419358,25.8156149 11.3481067,25.402228 L11.219982,25.2792134 L4.83801091,18.26173 C4.39365217,17.7730827 4.39190273,17.0348762 4.80630224,16.5427628 L4.92961815,16.4150239 L6.30372676,15.1699251 C6.79357104,14.7266522 7.53358578,14.724907 8.02690465,15.1382939 L8.15495643,15.2613085 L8.47534711,15.6125959 L17.1588993,7.81129686 L16.8118407,7.42898989 C16.367482,6.94034256 16.3657325,6.20213606 16.780132,5.71002263 L16.9034479,5.58228375 L18.2775565,4.33718497 C18.7639019,3.89391204 19.5068324,3.89216687 20.0006615,4.30555378 Z" id="路径" fill="" fill-rule="nonzero"></path>
            <path d="M22.7745133,29 L6.22223934,29 C5.2672382,29 4.5,29.6738722 4.5,30.5 C4.5,31.3317669 5.27371278,32 6.22223934,32 L22.7777505,32 C23.7327517,32 24.5,31.3261278 24.5,30.5 C24.5032272,29.6710526 23.7295144,29 22.7745133,29 L22.7745133,29 Z" id="路径" fill="#1C1C1C" fill-rule="nonzero"></path>
            <rect id="矩形备份-2" stroke="#979797" fill="" opacity="0" x="0.5" y="0.5" width="35" height="35"></rect>
        </g>
    </g>
</svg>