<?xml version="1.0" encoding="UTF-8"?>
<svg width="28px" height="28px" viewBox="0 0 28 28" version="1.1" xmlns="http://www.w3.org/2000/svg" xmlns:xlink="http://www.w3.org/1999/xlink">
    <title>形状结合备份 13</title>
    <g id="部分控件" stroke="" stroke-width="1" fill="" fill-rule="evenodd">
        <g id="美颜icon" transform="translate(-4.000000, -4.000000)" fill="" fill-rule="nonzero">
            <g id="编组-76">
                <path d="M12.9236395,4.5 C13.3878344,4.5 13.7641387,4.87630431 13.7641387,5.3404992 L13.7629997,5.82061143 C15.16745,5.18196347 16.7212602,4.8272557 18.3556227,4.8272557 C24.5150917,4.8272557 29.5304524,9.86528272 29.7185274,16.1532569 L29.7252431,16.1540375 L29.721,16.2892557 L29.7239961,16.5194176 C29.7239961,16.823938 29.7126769,17.1257393 29.6904475,17.4244008 C29.6202108,20.5760578 29.7201677,22.6552861 29.9897421,23.6629331 C30.2833199,24.7603029 30.7868612,25.6869346 31.500366,26.4428281 C28.8171302,30.0565592 23.7831016,31.5 18.0156596,31.5 C12.2266876,31.5 7.17661478,30.0457623 4.5,26.4016398 C5.51993778,25.6284091 6.1631722,24.6389768 6.43075312,23.4335325 C6.78164112,21.8527923 6.98897728,19.9647636 7.05276159,17.7694466 C7.0090001,17.3584504 6.98724934,16.9415464 6.98724934,16.5194176 C6.98724934,13.0345245 8.46964249,9.90572402 10.8212717,7.76363694 C10.5701499,7.62015294 10.4018424,7.3490198 10.4018424,7.03857634 L10.4018424,6.70766523 C10.4018424,6.24347034 10.7781467,5.86716603 11.2423416,5.86716603 L11.8028424,5.867 L11.8029739,5.3404992 C11.8029739,4.87630431 12.1792782,4.5 12.6434731,4.5 L12.9236395,4.5 Z M25.460517,12.9375455 C23.9206439,15.6741513 20.0477487,17.6155578 15.5135294,17.6155578 C14.0243444,17.6155578 12.6064951,17.4061423 11.3192052,17.0279185 L10.8950254,16.8956474 L10.8951277,20.5385982 L10.8990205,20.7858442 C11.0258583,24.8081711 14.2362214,28.0288894 18.1779919,28.0288894 C22.1197624,28.0288894 25.3301255,24.8081711 25.4569633,20.7858442 L25.4608561,20.5385982 L25.460517,12.9375455 Z M19.9993858,23.5082557 L20.0681847,23.5160768 C20.229587,23.5535061 20.330087,23.714691 20.2926576,23.8760933 C20.2416878,24.095885 20.168217,24.2998518 20.073234,24.4862661 C19.6726015,25.2725499 18.9073184,25.7083215 17.9984249,25.7083215 C17.1579825,25.7083215 16.4365815,25.3351128 16.0160118,24.6510831 C15.87851,24.4274452 15.7752808,24.1741478 15.7086125,23.8948787 C15.6701404,23.7337218 15.7695961,23.5718905 15.930753,23.5334184 C16.0919099,23.4949463 16.2537412,23.594402 16.2922133,23.7555589 C16.3443958,23.9741478 16.4235347,24.1683338 16.5271307,24.3368261 C16.8344634,24.836683 17.3595323,25.1083215 17.9984249,25.1083215 C18.6887269,25.1083215 19.2439854,24.7921432 19.5386303,24.2138713 C19.6111292,24.0715845 19.6680394,23.9135925 19.7081682,23.7405497 C19.7402505,23.6022049 19.8632552,23.5086046 19.9993858,23.5082557 Z" id="形状结合备份-13"></path>
            </g>
        </g>
    </g>
</svg>