<?xml version="1.0" encoding="UTF-8"?>
<svg width="20px" height="20px" viewBox="0 0 20 20" version="1.1" xmlns="http://www.w3.org/2000/svg" xmlns:xlink="http://www.w3.org/1999/xlink">
    <g id="部分控件" stroke="" stroke-width="" fill="" fill-rule="">
        <g id="编组-2">
            <g id="编组">
                <path d="M16.864,3.264 C17.4648858,3.264 17.952,3.75111419 17.952,4.352 L17.952,13.6 C17.952,14.2008858 17.4648858,14.688 16.864,14.688 L7.395,14.688 L6.18613709,16.8370896 C6.1535737,16.8949801 6.11082849,16.9461677 6.06022074,16.988333 L5.97870211,17.0445246 C5.71684343,17.1918201 5.38515842,17.0989483 5.23786291,16.8370896 L5.23786291,16.8370896 L4.028,14.688 L2.72,14.688 C2.11911419,14.688 1.632,14.2008858 1.632,13.6 L1.632,4.352 C1.632,3.75111419 2.11911419,3.264 2.72,3.264 L16.864,3.264 Z M4.896,7.616 C4.14489274,7.616 3.536,8.21855011 3.536,8.96183333 C3.536,9.70511656 4.14489274,10.3076667 4.896,10.3076667 C5.64710726,10.3076667 6.256,9.70511656 6.256,8.96183333 C6.256,8.21855011 5.64710726,7.616 4.896,7.616 Z M9.792,7.616 C9.04089274,7.616 8.432,8.21855011 8.432,8.96183333 C8.432,9.70511656 9.04089274,10.3076667 9.792,10.3076667 C10.5431073,10.3076667 11.152,9.70511656 11.152,8.96183333 C11.152,8.21855011 10.5431073,7.616 9.792,7.616 Z M14.688,7.616 C13.9368927,7.616 13.328,8.21855011 13.328,8.96183333 C13.328,9.70511656 13.9368927,10.3076667 14.688,10.3076667 C15.4391073,10.3076667 16.048,9.70511656 16.048,8.96183333 C16.048,8.21855011 15.4391073,7.616 14.688,7.616 Z" id="形状结合" fill=""></path>
                <rect id="矩形" stroke="#979797" stroke-width="0.544" fill="#D8D8D8" opacity="0" x="0.272" y="0.272" width="19.04" height="19.04"></rect>
            </g>
            <rect id="矩形备份" opacity="0.381949491" x="1.632" y="3.264" width="16.32" height="13.056" rx="1.088"></rect>
        </g>
    </g>
</svg>