<?xml version="1.0" encoding="UTF-8"?>
<svg width="20px" height="20px" viewBox="0 0 20 20" version="1.1" xmlns="http://www.w3.org/2000/svg" xmlns:xlink="http://www.w3.org/1999/xlink">
    <g id="部分控件" stroke="none" stroke-width="1" fill="none" fill-rule="evenodd">
        <g id="编组-77备份">
            <rect id="矩形" stroke="#979797" stroke-width="0.544" fill="#D8D8D8" opacity="0" x="0.272" y="0.272" width="19.04" height="19.04"></rect>
            <path d="M17.952,4.352 L17.952,13.6 C17.952,14.2008858 17.4648858,14.688 16.864,14.688 L7.395,14.688 L6.18613709,16.8370896 C6.1535737,16.8949801 6.11082849,16.9461677 6.06022074,16.988333 L5.97870211,17.0445246 C5.74593884,17.1754539 5.45800415,17.1166214 5.29344193,16.9180194 L5.23786291,16.8370896 L4.916,16.265456 L17.6167095,3.5663946 C17.8233444,3.76442979 17.952,4.04319033 17.952,4.352 Z M9.792,7.616 C9.04089274,7.616 8.432,8.21855011 8.432,8.96183333 C8.432,9.13750426 8.46601198,9.30531402 8.5278749,9.45916573 L3.299,14.687456 L2.72,14.688 C2.11911419,14.688 1.632,14.2008858 1.632,13.6 L1.632,4.352 C1.632,3.75111419 2.11911419,3.264 2.72,3.264 L14.723,3.263456 L10.2817322,7.70589711 C10.1297802,7.64783518 9.964647,7.616 9.792,7.616 Z M4.896,7.616 C4.14489274,7.616 3.536,8.21855011 3.536,8.96183333 C3.536,9.70511656 4.14489274,10.3076667 4.896,10.3076667 C5.64710726,10.3076667 6.256,9.70511656 6.256,8.96183333 C6.256,8.21855011 5.64710726,7.616 4.896,7.616 Z M14.688,7.616 C13.9368927,7.616 13.328,8.21855011 13.328,8.96183333 C13.328,9.70511656 13.9368927,10.3076667 14.688,10.3076667 C15.4391073,10.3076667 16.048,9.70511656 16.048,8.96183333 C16.048,8.21855011 15.4391073,7.616 14.688,7.616 Z" id="形状结合" fill="#C8C9CB"></path>
            <line x1="18.768" y1="0.816" x2="1.088" y2="18.496" id="路径-4" stroke="#FF584C" stroke-width="1.088" stroke-linecap="round"></line>
        </g>
    </g>
</svg>