<?xml version="1.0" encoding="UTF-8"?>
<svg width="36px" height="36px" viewBox="0 0 36 36" version="1.1" xmlns="http://www.w3.org/2000/svg" xmlns:xlink="http://www.w3.org/1999/xlink">
    <title>编组备份</title>
    <g id="部分控件" stroke="none" stroke-width="1" fill="" fill-rule="evenodd">
        <g id="编组备份">
            <path d="M7.00081324,13.1028867 C9.0189941,13.9851205 11.413187,14.629677 14.0347675,14.9569035 C14.5276178,16.7136719 16.1166442,18 18.0007168,18 C19.8851452,18 21.474416,16.713186 21.9672944,14.9554351 C24.5881606,14.6296371 26.9817898,13.9852705 28.999612,13.1033275 L28.9997119,29.2 C28.9997119,30.7463973 27.7461092,32 26.1997119,32 L9.80172167,32 C8.25532437,32 7.00172167,30.7463973 7.00172167,29.2 L7.00081324,13.1028867 Z M26.1997119,4 C27.7461092,4 28.9997119,5.2536027 28.9997119,6.8 L29.0002241,11.0586508 C27.1123442,11.9849059 24.7374135,12.6968228 22.0607819,13.0619328 C21.7187846,11.0938261 20.0310708,9.6 18.0007168,9.6 C15.9703628,9.6 14.282649,11.0938261 13.9397331,13.061006 C11.2633542,12.6967002 8.88817534,11.9846172 7.00021173,11.0581613 L7.00172167,6.8 C7.00172167,5.2536027 8.25532437,4 9.80172167,4 L26.1997119,4 Z" id="形状结合" fill=""></path>
            <rect id="矩形" stroke="#979797" fill="" opacity="0" x="0.5" y="0.5" width="35" height="35"></rect>
        </g>
    </g>
</svg>