<?xml version="1.0" encoding="UTF-8"?>
<svg width="26px" height="26px" viewBox="0 0 26 26" version="1.1" xmlns="http://www.w3.org/2000/svg" xmlns:xlink="http://www.w3.org/1999/xlink">
    <title>设置</title>
    <g id="部分控件" stroke="none" stroke-width="1" fill="none" fill-rule="evenodd">
        <g id="设置" transform="translate(-2.000000, -3.000000)" fill="#FFFFFF" fill-rule="nonzero">
            <g transform="translate(2.000000, 3.000000)">
                <rect id="矩形" opacity="0" x="0" y="0" width="26" height="26"></rect>
                <path d="M22.9506661,15.0816327 C22.9778355,15.244898 22.9710431,15.4421769 22.930289,15.6734694 C22.8895349,15.9047619 22.8216113,16.1394558 22.7265184,16.377551 C22.6314255,16.6156463 22.5159554,16.829932 22.3801084,17.0204082 C22.2442613,17.2108844 22.0948295,17.3469388 21.9318131,17.4285714 C21.7687966,17.5102041 21.6261571,17.5510204 21.5038948,17.5510204 C21.3816324,17.5510204 21.2457854,17.5238095 21.0963536,17.4693878 C20.9605065,17.4285714 20.7906977,17.3911565 20.5869271,17.3571429 C20.3831565,17.3231293 20.1759897,17.3163265 19.9654267,17.3367347 C19.7548638,17.3571429 19.5443008,17.4013605 19.3337379,17.4693878 C19.1231749,17.537415 18.9431775,17.6530612 18.7937458,17.8163265 C18.4677128,18.1564626 18.2775269,18.5442177 18.2231881,18.9795918 C18.1688493,19.414966 18.2299804,19.829932 18.4065816,20.2244898 C18.5424287,20.4965986 18.5220516,20.7687075 18.3454504,21.0408163 C18.2639422,21.1496599 18.1348875,21.2619048 17.9582863,21.377551 C17.7816851,21.4931973 17.588103,21.5986395 17.3775401,21.6938776 C17.1669771,21.7891156 16.9462256,21.8639456 16.7152856,21.9183673 C16.4843456,21.9727891 16.280575,22 16.1039738,22 C15.9817114,22 15.8662414,21.952381 15.7575638,21.8571429 C15.6488861,21.7619048 15.5741702,21.6598639 15.5334161,21.5510204 L15.5130391,21.5510204 C15.3636073,21.1292517 15.108894,20.7653061 14.7488993,20.4591837 C14.3889046,20.1530612 13.9711748,20 13.4957101,20 C13.0338301,20 12.6161003,20.1530612 12.2425209,20.4591837 C11.8689414,20.7653061 11.6074358,21.122449 11.4580041,21.5306122 C11.3900805,21.6938776 11.2881952,21.8129252 11.1523482,21.8877551 C11.0165011,21.962585 10.8670693,22 10.7040528,22 C10.5138669,22 10.2999078,21.9659864 10.0621754,21.8979592 C9.82444306,21.829932 9.58671069,21.744898 9.34897832,21.6428571 C9.11124595,21.5408163 8.89728682,21.4217687 8.70710093,21.2857143 C8.51691503,21.1496599 8.37427561,21.0136054 8.27918266,20.877551 C8.21125913,20.7823129 8.17390118,20.670068 8.16710883,20.5408163 C8.16031647,20.4115646 8.21125913,20.2312925 8.31993678,20 C8.46936856,19.6870748 8.52710356,19.329932 8.49314179,18.9285714 C8.45918003,18.5272109 8.28597501,18.1564626 7.97352676,17.8163265 C7.78334086,17.6122449 7.55240084,17.4795918 7.28070671,17.4183673 C7.00901257,17.3571429 6.75090314,17.3333333 6.50637841,17.3469388 C6.22109957,17.3605442 5.92902837,17.414966 5.63016482,17.5102041 C5.43997893,17.5646259 5.24979303,17.5510204 5.05960713,17.4693878 C4.91017536,17.414966 4.77093211,17.2891156 4.6418774,17.0918367 C4.51282268,16.8945578 4.39735268,16.6768707 4.29546737,16.4387755 C4.19358207,16.2006803 4.11547001,15.9557823 4.06113118,15.7040816 C4.00679235,15.452381 3.99320765,15.244898 4.02037706,15.0816327 C4.06113118,14.7823129 4.19697825,14.5918367 4.42791827,14.5102041 C4.83545947,14.3469388 5.20224656,14.0782313 5.52827952,13.7040816 C5.85431249,13.329932 6.01732897,12.9115646 6.01732897,12.4489796 C6.01732897,11.9727891 5.85431249,11.5578231 5.52827952,11.2040816 C5.20224656,10.8503401 4.83545947,10.5918367 4.42791827,10.4285714 C4.3056559,10.3877551 4.2037706,10.2891156 4.12226236,10.1326531 C4.04075412,9.97619048 4,9.81632653 4,9.65306122 C4,9.47619048 4.02716941,9.27891156 4.08150824,9.06122449 C4.13584707,8.84353741 4.20716678,8.63265306 4.29546737,8.42857143 C4.38376797,8.2244898 4.48565327,8.03741497 4.60112328,7.86734694 C4.71659329,7.69727891 4.84225183,7.57142857 4.97809889,7.48979592 C5.08677655,7.42176871 5.19205803,7.39455782 5.29394333,7.40816327 C5.39582863,7.42176871 5.50790246,7.44897959 5.63016482,7.48979592 C6.03770603,7.65306122 6.46222812,7.70408163 6.90373109,7.64285714 C7.34523406,7.58163265 7.73579439,7.3877551 8.07541206,7.06122449 C8.23842854,6.89795918 8.35729472,6.69727891 8.43201061,6.45918367 C8.5067265,6.22108844 8.55427297,5.98639456 8.57465003,5.75510204 C8.59502709,5.52380952 8.59502709,5.31292517 8.57465003,5.12244898 C8.55427297,4.93197279 8.53729209,4.79591837 8.52370738,4.71428571 C8.49653797,4.63265306 8.47276473,4.53741497 8.45238767,4.42857143 C8.43201061,4.31972789 8.44219914,4.2244898 8.48295326,4.14285714 C8.5644615,3.95238095 8.7104971,3.78571429 8.92106006,3.64285714 C9.13162301,3.5 9.35916685,3.38095238 9.60369158,3.28571429 C9.8482163,3.19047619 10.0859487,3.11904762 10.3168887,3.07142857 C10.5478287,3.02380952 10.7312222,3 10.8670693,3 C11.0436705,3 11.1829138,3.05782313 11.2847991,3.17346939 C11.3866844,3.28911565 11.4580041,3.40816327 11.4987582,3.53061224 C11.64819,3.89795918 11.8927147,4.22108844 12.2323324,4.5 C12.57195,4.77891156 12.9726989,4.91836735 13.4345789,4.91836735 C13.9100437,4.91836735 14.3311696,4.78571429 14.6979566,4.52040816 C15.0647437,4.25510204 15.3228532,3.91836735 15.4722849,3.51020408 C15.5266238,3.40136054 15.6115282,3.28911565 15.7269982,3.17346939 C15.8424682,3.05782313 15.9613344,3 16.0835967,3 C16.2737826,3 16.4809494,3.02721088 16.7050971,3.08163265 C16.9292448,3.13605442 17.1499962,3.21088435 17.3673515,3.30612245 C17.5847069,3.40136054 17.7850813,3.52380952 17.9684748,3.67346939 C18.1518684,3.82312925 18.297904,3.98639456 18.4065816,4.16326531 C18.4745052,4.27210884 18.4948822,4.39115646 18.4677128,4.52040816 C18.4405434,4.64965986 18.413374,4.7414966 18.3862046,4.79591837 C18.2096034,5.19047619 18.1552645,5.60544218 18.2231881,6.04081633 C18.2911116,6.47619048 18.4880899,6.85714286 18.8141228,7.18367347 C19.1401558,7.51020408 19.5409046,7.69047619 20.0163694,7.7244898 C20.4918341,7.7585034 20.9333371,7.68027211 21.3408783,7.48979592 C21.449556,7.42176871 21.5820068,7.39455782 21.738231,7.40816327 C21.8944551,7.42176871 22.026906,7.4829932 22.1355837,7.59183673 C22.3393543,7.78231293 22.5193516,8.07142857 22.6755758,8.45918367 C22.8317999,8.84693878 22.9370814,9.23809524 22.9914202,9.63265306 C23.0185896,9.86394558 22.9812317,10.0442177 22.8793464,10.1734694 C22.7774611,10.3027211 22.6721796,10.3877551 22.5635019,10.4285714 C22.142376,10.5782313 21.7823813,10.8401361 21.4835177,11.2142857 C21.1846542,11.5884354 21.0352224,12.0136054 21.0352224,12.4897959 C21.0352224,12.952381 21.1608809,13.3571429 21.412198,13.7040816 C21.6635151,14.0510204 21.9929442,14.2993197 22.4004854,14.4489796 C22.4955784,14.5034014 22.5770866,14.5578231 22.6450102,14.6122449 C22.7944419,14.7346939 22.8963272,14.8911565 22.9506661,15.0816327 Z M13.475333,16.9183673 C14.0866448,16.9183673 14.6639949,16.8027211 15.2073832,16.5714286 C15.7507714,16.3401361 16.22284,16.0204082 16.6235888,15.6122449 C17.0243377,15.2040816 17.3401821,14.7312925 17.5711221,14.1938776 C17.8020622,13.6564626 17.9175322,13.0816327 17.9175322,12.4693878 C17.9175322,11.8571429 17.8020622,11.2823129 17.5711221,10.744898 C17.3401821,10.207483 17.0243377,9.73809524 16.6235888,9.33673469 C16.22284,8.93537415 15.7507714,8.61904762 15.2073832,8.3877551 C14.6639949,8.15646259 14.0866448,8.04081633 13.475333,8.04081633 C12.8640212,8.04081633 12.2900674,8.15646259 11.7534714,8.3877551 C11.2168755,8.61904762 10.7482031,8.93537415 10.3474543,9.33673469 C9.94670543,9.73809524 9.63086099,10.207483 9.39992098,10.744898 C9.16898096,11.2823129 9.05351095,11.8571429 9.05351095,12.4693878 C9.05351095,13.0816327 9.16898096,13.6564626 9.39992098,14.1938776 C9.63086099,14.7312925 9.94670543,15.2040816 10.3474543,15.6122449 C10.7482031,16.0204082 11.2168755,16.3401361 11.7534714,16.5714286 C12.2900674,16.8027211 12.8640212,16.9183673 13.475333,16.9183673 Z" id="形状"></path>
            </g>
        </g>
    </g>
</svg>