<?xml version="1.0" encoding="UTF-8"?>
<svg width="28px" height="26px" viewBox="0 0 28 26" version="1.1" xmlns="http://www.w3.org/2000/svg" xmlns:xlink="http://www.w3.org/1999/xlink">
    <title>形状</title>
    <g id="部分控件" stroke="none" stroke-width="1" fill="" fill-rule="evenodd">
        <g id="商城/36" transform="translate(-4.000000, -5.000000)" fill="" fill-rule="nonzero">
            <path d="M31.6109881,11.0437717 L29.39049,6.68002314 C28.8660735,5.64897092 27.8092727,5 26.6549924,5 L9.34500759,5 C8.19072728,5 7.13392655,5.64897092 6.60950999,6.68002314 L4.38901193,11.0437717 C3.15651302,13.8768993 4.9810114,17.2249132 8.05350872,17.4750868 C9.76974794,17.6178854 11.4296232,16.822588 12.3970049,15.3939838 C12.5821538,15.1187176 12.8916288,14.9537122 13.2227542,14.9537122 C13.5538796,14.9537122 13.8633546,15.1187176 14.0485035,15.3939838 C14.9080027,16.659892 16.3570014,17.49113 18,17.49113 C19.6429986,17.4911299 21.0914973,16.659892 21.9514965,15.3939838 C22.1366454,15.1187176 22.4461204,14.9537122 22.7772458,14.9537122 C23.1083712,14.9537122 23.4178462,15.1187176 23.6029951,15.3939838 C24.5703768,16.822588 26.2302521,17.6178854 27.9464913,17.4750868 C31.0189886,17.2249132 32.843487,13.8768993 31.6109881,11.0437717 Z M28.3899909,19.4438874 C28.1127985,19.4781883 27.8337865,19.4956004 27.5544916,19.4960278 C26.053843,19.4965259 24.5955209,18.9972907 23.4084952,18.0767065 C23.0376239,17.7853777 22.5163677,17.7853777 22.1454964,18.0767065 C20.9585334,18.9970501 19.5004523,19.4962631 18.0000084,19.4960278 C16.4993514,19.4965259 15.0410293,18.9972907 13.8540036,18.0767065 C13.4831323,17.7853777 12.9618761,17.7853777 12.5910047,18.0767065 C11.1782713,19.1719814 9.39140142,19.6636885 7.61900911,19.4448901 C7.33548418,19.4090175 7.05027053,19.497175 6.83609594,19.686883 C6.62192134,19.8765911 6.49948597,20.1495142 6.50000841,20.4360586 L6.50000841,28.967528 C6.50000841,30.0900501 7.38350932,31 8.47350835,31 L27.5269917,31 C28.6169907,31 29.5004899,30.0900501 29.5004899,28.967528 L29.5004899,20.4390667 C29.4999899,19.8409564 28.9809904,19.3676822 28.3899909,19.4438874 L28.3899909,19.4438874 Z M24.2404945,27.0142692 L11.7590063,27.0142692 C11.209006,27.0142692 10.7590063,26.5630544 10.7590063,26.0115696 C10.7590063,25.4600848 11.2090059,25.00887 11.7590063,25.00887 L24.2404945,25.00887 C24.790494,25.00887 25.2404937,25.4600848 25.2404937,26.0115696 C25.2404937,26.5630544 24.790494,27.0142692 24.2404945,27.0142692 L24.2404945,27.0142692 Z" id="形状"></path>
        </g>
    </g>
</svg>