<?xml version="1.0" encoding="UTF-8"?>
<svg width="30px" height="22px" viewBox="0 0 30 22" version="1.1" xmlns="http://www.w3.org/2000/svg" xmlns:xlink="http://www.w3.org/1999/xlink">
    <title>形状结合</title>
    <g id="部分控件" stroke="none" stroke-width="1" fill="" fill-rule="evenodd">
        <g id="视频/36" transform="translate(-3.000000, -7.000000)" fill="">
            <path d="M25.0888889,7 C25.7761766,7 26.3333333,7.55715676 26.3333333,8.24444444 L26.3333333,11.4174301 C26.3333333,11.7488009 26.6019625,12.0174301 26.9333333,12.0174301 C26.9980717,12.0174301 27.0623833,12.0069529 27.1237741,11.9864049 L31.9971127,10.3552564 C32.3229761,10.2461504 32.6755885,10.4218669 32.7846946,10.7477303 C32.8060168,10.8114128 32.8168889,10.8781271 32.8168889,10.9452843 L32.8168889,23.7996046 C32.8168889,24.1432484 32.5383105,24.4218268 32.1946667,24.4218268 C32.1275095,24.4218268 32.0607951,24.4109547 31.9971127,24.3896325 L27.1238268,22.7579997 C26.8096004,22.6527931 26.4695828,22.8222371 26.3643762,23.1364634 C26.3438166,23.19787 26.3333333,23.2621999 26.3333333,23.3269569 L26.3333333,27.1444444 C26.3333333,27.8317321 25.7761766,28.3888889 25.0888889,28.3888889 L4.24444444,28.3888889 C3.55715676,28.3888889 3,27.8317321 3,27.1444444 L3,8.24444444 C3,7.55715676 3.55715676,7 4.24444444,7 L25.0888889,7 Z M10.2916667,10.8888889 C8.41236439,10.8888889 6.88888889,12.4123644 6.88888889,14.2916667 C6.88888889,16.1709689 8.41236439,17.6944444 10.2916667,17.6944444 C12.1709689,17.6944444 13.6944444,16.1709689 13.6944444,14.2916667 C13.6944444,12.4123644 12.1709689,10.8888889 10.2916667,10.8888889 Z" id="形状结合"></path>
        </g>
    </g>
</svg>