<svg width="26" height="25" viewBox="0 0 26 25" fill="none" xmlns="http://www.w3.org/2000/svg">
<path d="M19.031 8.43442C18.9368 8.42827 18.8012 8.50613 18.5299 8.66187L11.5925 12.6453C11.0526 12.9553 10.7827 13.1102 10.5756 13.3163C10.2995 13.5909 10.1009 13.9331 9.99988 14.3084C9.92407 14.5899 9.92407 14.9 9.92407 15.5203V21.861C9.92407 23.4502 11.2185 24.7384 12.8152 24.7384C14.1242 24.7384 15.2699 23.863 15.6081 22.6044L19.2143 9.18442C19.2952 8.88336 19.3357 8.73283 19.3053 8.64388C19.2648 8.52529 19.1565 8.44263 19.031 8.43442Z" fill="#0C60F2"/>
<path d="M9.46288 2.58624C9.32855 2.54566 9.15969 2.5676 8.82197 2.61148L5.24075 3.0768C1.0721 3.61845 -1.25921 8.14035 0.733978 11.8183C2.3403 14.7825 6.09573 15.839 9.02759 14.1517L9.03052 14.15C9.58315 13.8313 9.9235 13.2447 9.92407 12.6098L9.92408 3.57267C9.92408 3.23425 9.92408 3.06504 9.86616 2.93796C9.78894 2.76852 9.64198 2.64035 9.46288 2.58624Z" fill="#0095FF"/>
<path d="M10.9577 3.1626L17.953 7.2243C18.4371 7.50542 18.6792 7.64598 18.9329 7.71423C19.2711 7.80522 19.6272 7.80491 19.9652 7.71334C20.2188 7.64465 20.4606 7.50367 20.9443 7.22172L24.6956 5.03497C25.5064 4.56233 25.949 3.63997 25.8127 2.70699C25.6309 1.46278 24.491 0.595394 23.252 0.75846L11.1174 2.35548C10.7755 2.40048 10.6046 2.42298 10.537 2.4866C10.4469 2.57141 10.4206 2.70457 10.4715 2.81765C10.5097 2.90246 10.659 2.98918 10.9577 3.1626Z" fill="#00CCFF"/>
</svg>
