<svg width="20" height="20" viewBox="0 0 20 20" fill="none" xmlns="http://www.w3.org/2000/svg">
<g clip-path="url(#clip0_12815_3184)">
<path d="M4.37549 10C4.37549 12.6843 6.25572 14.9275 8.771 15.4883C8.80608 15.9421 8.88829 16.3822 9.01514 16.8037C5.68486 16.3259 3.12549 13.4625 3.12549 10H4.37549ZM10.3931 10.7773C10.1116 11.0843 9.85929 11.4187 9.64307 11.7773L6.87549 9.00879V10C6.87549 11.4065 7.80449 12.5952 9.08252 12.9873C8.94967 13.378 8.85461 13.7859 8.80127 14.207C6.96805 13.6857 5.62549 12.0004 5.62549 10V7.75879L2.05811 4.19238L2.93311 3.31738L10.3931 10.7773ZM10.0005 1.25C12.4165 1.25024 14.3755 3.2089 14.3755 5.625V8.78027C13.9444 8.82304 13.5263 8.91028 13.1255 9.03613V5.625C13.1255 3.89926 11.7262 2.50024 10.0005 2.5C8.31854 2.5 6.9462 3.82909 6.87744 5.49414L5.79541 4.41113C6.32156 2.58538 8.00539 1.25 10.0005 1.25Z" fill="#FF7200"/>
<path d="M20 15C20 17.7614 17.7614 20 15 20C12.2386 20 10 17.7614 10 15C10 12.2386 12.2386 10 15 10C17.7614 10 20 12.2386 20 15Z" fill="#FF7200"/>
<path d="M15.6235 11.875H14.3735V15.625H15.6235V11.875ZM15.7505 16.625H14.2505V18.125H15.7505V16.625Z" fill="white"/>
</g>
<defs>
<clipPath id="clip0_12815_3184">
<rect width="20" height="20" fill="white"/>
</clipPath>
</defs>
</svg>
