<svg t="1633945052476" class="icon" viewBox="0 0 1024 1024" version="1.1" xmlns="http://www.w3.org/2000/svg" p-id="2567" width="128" height="128"><path d="M501.510244 926.09561c-225.954341 0-409.100488-183.146146-409.100488-409.100488 0-225.954341 183.146146-409.100488 409.100488-409.100488 225.954341 0 409.100488 183.146146 409.100488 409.100488 0 225.954341-183.146146 409.100488-409.100488 409.100488z m0-125.877073c139.03922 0 251.754146-112.714927 251.754146-251.754147H249.756098c0 139.03922 112.714927 251.754146 251.754146 251.754147z m-125.877073-377.63122a62.938537 62.938537 0 1 0 0-125.877073 62.938537 62.938537 0 0 0 0 125.877073z m251.754146 0a62.938537 62.938537 0 1 0 0-125.877073 62.938537 62.938537 0 0 0 0 125.877073z" p-id="2568"></path></svg>