<svg t="1635502339641" class="icon" viewBox="0 0 1024 1024" version="1.1" xmlns="http://www.w3.org/2000/svg" p-id="1417" width="32" height="32"><path d="M888.917333 491.946667l-127.914666-159.957334a32.085333 32.085333 0 0 0-35.626667-10.197333c-12.8 4.522667-21.333333 16.64-21.333333 30.165333v96H448a64 64 0 0 0 0 127.957334h255.914667v96a31.957333 31.957333 0 0 0 57.002666 19.968l128-160a31.658667 31.658667 0 0 0 0-39.893334zM576 768H319.445333a63.744 63.744 0 0 1-63.573333-64V319.488c0-35.114667 28.672-63.573333 64.085333-63.573333h255.957334a64 64 0 0 0 0-127.872H256a128 128 0 0 0-128 128v512a128 128 0 0 0 128 128h320a64 64 0 0 0 0-128z" p-id="1418"></path></svg>