<svg t="1633944966193" class="icon" viewBox="0 0 1024 1024" version="1.1" xmlns="http://www.w3.org/2000/svg" p-id="1685" width="128" height="128"><path d="M246.484293 782.510829v-177.002146H157.970732v177.002146a88.763317 88.763317 0 0 0 88.513561 88.513561h177.002146v-88.513561H246.509268zM777.490732 162.965854h-177.002147v88.513561h177.002147v177.002146h88.513561V251.50439a88.763317 88.763317 0 0 0-88.513561-88.513561zM246.509268 251.479415h177.002147V162.965854H246.509268a88.763317 88.763317 0 0 0-88.513561 88.513561v177.002146h88.513561V251.50439zM777.490732 782.485854h-177.002147v88.513561h177.002147a88.763317 88.763317 0 0 0 88.513561-88.513561v-177.002147h-88.513561v177.002147z" p-id="1686"></path></svg>