<?xml version="1.0" encoding="UTF-8"?>
<svg width="24px" height="24px" viewBox="0 0 24 24" version="1.1" xmlns="http://www.w3.org/2000/svg" xmlns:xlink="http://www.w3.org/1999/xlink">
    <title>分享</title>
    <defs>
        <filter color-interpolation-filters="auto" id="filter-1">
            <feColorMatrix in="SourceGraphic" type="matrix" values="0 0 0 0 1.000000 0 0 0 0 1.000000 0 0 0 0 1.000000 0 0 0 1.000000 0"></feColorMatrix>
        </filter>
    </defs>
    <g id="直播二期" stroke="none" stroke-width="1" fill="none" fill-rule="evenodd">
        <g id="默认展示备份-29" transform="translate(-698.000000, -23.000000)">
            <g id="编组-3备份" transform="translate(694.000000, 19.000000)">
                <g id="分享" transform="translate(4.500000, 4.670478)">
                    <rect id="矩形" fill="#000000" fill-rule="nonzero" opacity="0" x="0" y="0" width="23" height="23"></rect>
                    <g filter="url(#filter-1)" id="编组">
                        <g transform="translate(3.000000, 3.000000)">
                            <path d="M15.03125,8.140625 L8.859375,8.140625 L8.859375,1.96875 C8.859375,0.8859375 7.9734375,0 6.890625,0 L1.96875,0 C0.8859375,0 0,0.8859375 0,1.96875 L0,12.21875 C0,13.3015625 0.8859375,14.1875 1.96875,14.1875 L2.8125,14.1875 L2.8125,15.03125 C2.8125,16.1140625 3.6984375,17 4.78125,17 L15.03125,17 C16.1140625,17 17,16.1140625 17,15.03125 L17,10.109375 C17,9.0125 16.128125,8.140625 15.03125,8.140625 Z M2.8125,10.109375 L2.8125,13.0625 L1.96875,13.0625 C1.5046875,13.0625 1.125,12.6828125 1.125,12.21875 L1.125,1.96875 C1.125,1.5046875 1.5046875,1.125 1.96875,1.125 L6.890625,1.125 C7.3546875,1.125 7.734375,1.5046875 7.734375,1.96875 L7.734375,8.140625 L4.78125,8.140625 C3.6984375,8.140625 2.8125,9.0125 2.8125,10.109375 Z M15.875,15.03125 C15.875,15.4953125 15.4953125,15.875 15.03125,15.875 L4.78125,15.875 C4.3171875,15.875 3.9375,15.4953125 3.9375,15.03125 L3.9375,10.109375 C3.9375,9.6453125 4.3171875,9.265625 4.78125,9.265625 L15.03125,9.265625 C15.4953125,9.265625 15.875,9.6453125 15.875,10.109375 L15.875,15.03125 Z" id="形状" fill="#000000" fill-rule="nonzero"></path>
                            <path d="M13.5,4.21875 L12.4734375,3.1921875 L13.9640625,3.1921875 C15.2015625,3.1921875 16.2140625,4.2046875 16.2140625,5.4421875 L16.2140625,7.59375 L17.3390625,7.59375 L17.3390625,5.4421875 C17.3390625,3.5859375 15.8203125,2.0671875 13.9640625,2.0671875 L12.4734375,2.0671875 L13.5,1.040625 L12.6984375,0.2390625 L10.3078125,2.6296875 L12.6984375,5.0203125 L13.5,4.21875 Z" id="路径" fill="#000000" fill-rule="nonzero" transform="translate(13.823438, 3.916406) scale(-1, 1) rotate(-90.000000) translate(-13.823438, -3.916406) "></path>
                        </g>
                    </g>
                </g>
            </g>
        </g>
    </g>
</svg>