<svg t="1633944986426" class="icon" viewBox="0 0 1024 1024" version="1.1" xmlns="http://www.w3.org/2000/svg" p-id="1834" width="128" height="128"><path d="M854.64039 620.94361v97.130146l-138.015219-0.074927v139.613659h-97.329951l2.172878-162.741073a74.926829 74.926829 0 0 1 74.926829-73.927805h158.245463z m-471.164878 236.693853h-97.055219l-0.149854-139.638634h-137.865366v-97.005268h160.14361a74.926829 74.926829 0 0 1 74.926829 74.926829v161.717073z m0-706.260292v161.767024a74.926829 74.926829 0 0 1-74.926829 74.926829H148.405073V290.965854h137.940293V151.377171h97.130146z m333.149659 0v139.563707h138.015219v97.205073h-160.14361a74.926829 74.926829 0 0 1-74.926829-74.926829v-161.841951h97.05522z" p-id="1835"></path></svg>