<svg t="1633945021029" class="icon" viewBox="0 0 1024 1024" version="1.1" xmlns="http://www.w3.org/2000/svg" p-id="2275" width="128" height="128"><path d="M814.47961 516.995122a98.478829 98.478829 0 0 1 63.438049-91.910244 368.86478 368.86478 0 0 0-40.310635-97.404878 98.353951 98.353951 0 0 1-129.973073-130.023024A370.488195 370.488195 0 0 0 610.179122 157.346341a98.653659 98.653659 0 0 1-91.910244 63.438049 98.478829 98.478829 0 0 1-91.910244-63.438049c-34.716098 8.841366-67.384195 22.478049-97.404878 40.310635a98.478829 98.478829 0 0 1-20.155317 109.817756 98.653659 98.653659 0 0 1-109.817756 20.230244 366.392195 366.392195 0 0 0-40.360585 97.379902A98.653659 98.653659 0 0 1 222.033171 516.995122a98.478829 98.478829 0 0 1-63.438049 91.910244c8.841366 34.691122 22.478049 67.35922 40.310634 97.404878a98.353951 98.353951 0 0 1 129.973073 130.023024A370.488195 370.488195 0 0 0 426.333659 876.643902a98.653659 98.653659 0 0 1 91.910243-63.438048 98.478829 98.478829 0 0 1 91.910244 63.438048c34.716098-8.841366 67.384195-22.478049 97.404878-40.310634a98.478829 98.478829 0 0 1 20.155317-109.817756 98.653659 98.653659 0 0 1 109.817757-20.230244 366.392195 366.392195 0 0 0 40.385561-97.379902 98.478829 98.478829 0 0 1-63.438049-91.910244z m-296.210732 98.753561a98.778537 98.778537 0 0 1-98.753561-98.753561 98.778537 98.778537 0 0 1 98.753561-98.753561 98.778537 98.778537 0 0 1 98.728585 98.753561 98.778537 98.778537 0 0 1-98.728585 98.753561z" p-id="2276"></path></svg>