<svg t="1633945343807" class="icon" viewBox="0 0 1024 1024" version="1.1" xmlns="http://www.w3.org/2000/svg" p-id="2710" width="128" height="128"><path d="M745.771707 678.162732c-29.621073 0-56.09522 11.738537-76.375414 30.120585l-277.778732-162.341463c1.948098-8.99122 3.496585-17.982439 3.496585-27.373269 0-9.390829-1.548488-18.382049-3.496585-27.398244l274.681756-160.768a116.136585 116.136585 0 0 0 79.47239 31.694049c64.686829 0 116.885854-52.44878 116.885854-117.385366S810.458537 127.37561 745.771707 127.37561a116.96078 116.96078 0 0 0-116.885853 117.36039c0 9.390829 1.548488 18.382049 3.496585 27.373268l-274.681756 160.792976a116.136585 116.136585 0 0 0-79.47239-31.719024 116.96078 116.96078 0 0 0-116.885854 117.385365c0 64.936585 52.199024 117.335415 116.885854 117.335415a116.136585 116.136585 0 0 0 79.47239-31.669073l277.429073 162.716097a110.791805 110.791805 0 0 0-3.121951 25.450147c0 62.963512 51.025171 114.213463 113.763902 114.213463 62.738732 0 113.763902-51.249951 113.763903-114.213463 0-62.988488-51.025171-114.238439-113.763903-114.238439z" p-id="2711"></path></svg>