<svg width="24" height="24" viewBox="0 0 24 24" fill="none" xmlns="http://www.w3.org/2000/svg">
<path d="M2.30341 10.0236C1.80818 8.59092 2.43509 7.05223 3.65436 6.15121C4.57874 5.46811 5.5073 4.77823 6.03717 4.38414C6.28895 4.19687 6.64191 4.23783 6.84516 4.47688L9.73259 7.87286C9.92137 8.09489 9.92146 8.42094 9.73281 8.64308L7.96229 10.7278C7.80112 10.9176 7.77428 11.1883 7.9017 11.4022C8.47537 12.3652 9.10487 13.19 9.95554 14.0404C10.8112 14.8958 11.6359 15.5131 12.6043 16.0853C12.8184 16.2118 13.0887 16.1849 13.2783 16.0241L15.3545 14.2629C15.5767 14.0744 15.9028 14.0746 16.1248 14.2632L19.5236 17.1514C19.762 17.354 19.8028 17.7065 19.6168 17.9581L17.8389 20.3633C16.945 21.5725 15.4183 22.1874 13.9961 21.6981C11.3673 20.7936 8.89828 19.2926 6.80005 17.195C4.70783 15.1034 3.20895 12.6432 2.30341 10.0236Z" stroke="white" stroke-opacity="0.9" stroke-width="1.7" stroke-linecap="round" stroke-linejoin="round"/>
<path d="M21.1077 3.96667L21.4245 4.64646L21.4248 4.64631L21.1077 3.96667ZM21.8665 4.45007H21.1165H21.8665ZM21.8665 8.5448L22.6165 8.54528V8.5448H21.8665ZM21.1077 9.0282L20.7902 9.70769L20.7905 9.70785L21.1077 9.0282ZM13.3333 9.79382L13.3331 10.5438H13.3333V9.79382ZM12.8 3.73328L12.05 3.7331V3.73328H12.8ZM13.3333 3.20007V2.45007H13.3331L13.3333 3.20007ZM20.3299 8.66478L20.6473 7.98529L20.3299 8.66478ZM20.3294 4.32943L20.0125 3.64964L20.3294 4.32943ZM18.8606 3.20007V3.95007C18.7407 3.95007 18.6438 3.85286 18.6438 3.73346L19.3938 3.73328L20.1438 3.7331C20.1436 3.02471 19.5695 2.45007 18.8606 2.45007V3.20007ZM20.3294 4.32943L20.6462 5.00921L21.4245 4.64646L21.1077 3.96667L20.7908 3.28689L20.0125 3.64964L20.3294 4.32943ZM21.1077 3.96667L21.4248 4.64631C21.2809 4.71349 21.1165 4.60824 21.1165 4.45007H21.8665H22.6165C22.6165 3.51151 21.6416 2.88984 20.7905 3.28704L21.1077 3.96667ZM21.8665 4.45007H21.1165V8.5448H21.8665H22.6165V4.45007H21.8665ZM21.8665 8.5448L21.1165 8.54432C21.1166 8.38695 21.2802 8.28108 21.4248 8.34854L21.1077 9.0282L20.7905 9.70785C21.6421 10.1052 22.6159 9.48262 22.6165 8.54528L21.8665 8.5448ZM21.1077 9.0282L21.4251 8.34871L20.6473 7.98529L20.3299 8.66478L20.0124 9.34427L20.7902 9.70769L21.1077 9.0282ZM19.3938 9.26062H18.6438C18.6438 9.14096 18.7409 9.04382 18.8606 9.04382V9.79382V10.5438C19.5694 10.5438 20.1438 9.96939 20.1438 9.26062H19.3938ZM18.8606 9.79382V9.04382H13.3333V9.79382V10.5438H18.8606V9.79382ZM13.3333 9.79382L13.3334 9.04382C13.4528 9.04385 13.55 9.14074 13.55 9.26062H12.8H12.05C12.05 9.96952 12.6247 10.5437 13.3331 10.5438L13.3333 9.79382ZM12.8 9.26062H13.55V3.73328H12.8H12.05V9.26062H12.8ZM12.8 3.73328L13.55 3.73345C13.55 3.85308 13.4531 3.95004 13.3334 3.95007L13.3333 3.20007L13.3331 2.45007C12.6246 2.45024 12.0502 3.02457 12.05 3.7331L12.8 3.73328ZM13.3333 3.20007V3.95007H18.8606V3.20007V2.45007H13.3333V3.20007ZM20.3299 8.66478L20.6473 7.98529C19.714 7.54921 18.6438 8.23046 18.6438 9.26062H19.3938H20.1438C20.1438 9.32819 20.0736 9.37287 20.0124 9.34427L20.3299 8.66478ZM19.3938 3.73328H18.6438C18.6438 4.76291 19.713 5.44419 20.6462 5.00921L20.3294 4.32943L20.0125 3.64964C20.0737 3.62113 20.1438 3.66579 20.1438 3.73328H19.3938Z" fill="white" fill-opacity="0.9"/>
<path d="M12.9067 3.62605C12.9067 3.46036 13.0411 3.32605 13.2067 3.32605H19.008C19.1737 3.32605 19.308 3.46036 19.308 3.62605V9.39028C19.308 9.55596 19.1737 9.69028 19.008 9.69028H13.2067C13.0411 9.69028 12.9067 9.55596 12.9067 9.39028V3.62605Z" stroke="white" stroke-opacity="0.9" stroke-width="1.7" stroke-linecap="round" stroke-linejoin="round"/>
</svg>
