<svg width="24" height="24" viewBox="0 0 24 24" fill="none" xmlns="http://www.w3.org/2000/svg">
<mask id="path-1-inside-1_10966_6521" fill="white">
<path fill-rule="evenodd" clip-rule="evenodd" d="M12 23C18.6274 23 24 18.0751 24 12C24 5.92487 18.6274 1 12 1C5.37258 1 0 5.92487 0 12C0 14.2646 0.746519 16.3693 2.02628 18.1187C2.07963 18.1916 2.08821 18.287 2.06304 18.3738L1.16159 21.4826C0.942121 22.2395 1.64363 22.941 2.40052 22.7216L5.50937 21.8201C5.82952 21.7273 6.19114 21.6327 6.4923 21.7755C8.14178 22.558 10.0146 23 12 23Z"/>
</mask>
<path d="M1.16159 21.4826L2.79434 21.9561H2.79434L1.16159 21.4826ZM2.40052 22.7216L2.87396 24.3543H2.87396L2.40052 22.7216ZM6.4923 21.7755L5.76368 23.3115L6.4923 21.7755ZM2.02628 18.1187L0.654218 19.1224L2.02628 18.1187ZM22.3 12C22.3 17 17.8308 21.3 12 21.3V24.7C19.424 24.7 25.7 19.1502 25.7 12H22.3ZM12 2.7C17.8308 2.7 22.3 6.99997 22.3 12H25.7C25.7 4.84977 19.424 -0.7 12 -0.7V2.7ZM1.7 12C1.7 6.99997 6.1692 2.7 12 2.7V-0.7C4.57596 -0.7 -1.7 4.84977 -1.7 12H1.7ZM3.39834 17.115C2.31821 15.6385 1.7 13.8815 1.7 12H-1.7C-1.7 14.6476 -0.825173 17.1001 0.654218 19.1224L3.39834 17.115ZM2.79434 21.9561L3.69579 18.8472L0.430296 17.9003L-0.471156 21.0092L2.79434 21.9561ZM1.92708 21.0888C2.4569 20.9352 2.94796 21.4262 2.79434 21.9561L-0.471156 21.0092C-1.06372 23.0528 0.830364 24.9469 2.87396 24.3543L1.92708 21.0888ZM5.03594 20.1874L1.92708 21.0888L2.87396 24.3543L5.98281 23.4529L5.03594 20.1874ZM12 21.3C10.268 21.3 8.64395 20.9146 7.22093 20.2396L5.76368 23.3115C7.63961 24.2014 9.76117 24.7 12 24.7V21.3ZM5.98281 23.4529C6.05828 23.431 6.10622 23.4178 6.14533 23.4086C6.18347 23.3996 6.19307 23.3994 6.18304 23.4004C6.16948 23.4018 5.99166 23.4196 5.76368 23.3115L7.22093 20.2396C6.69179 19.9886 6.18258 19.9823 5.83288 20.0185C5.49528 20.0534 5.19112 20.1424 5.03594 20.1874L5.98281 23.4529ZM0.654218 19.1224C0.331017 18.6806 0.342558 18.2029 0.430295 17.9004L3.69579 18.8472C3.83385 18.3711 3.82824 17.7026 3.39834 17.115L0.654218 19.1224Z" fill="white" fill-opacity="0.9" mask="url(#path-1-inside-1_10966_6521)"/>
<path d="M6.52515 8H9.5339C11.2822 8 12.018 8.80781 11.7209 10.4234C11.4218 12.0501 10.3868 12.869 8.61818 12.869H6.81903L6.26145 15.9011H5.07218L6.52515 8ZM7.51092 9.10659L7.02253 11.7624H8.75052C9.27909 11.7624 9.6857 11.6517 9.96628 11.4526C10.2489 11.2423 10.434 10.8993 10.5215 10.4234C10.609 9.9476 10.5379 9.61562 10.3305 9.41643C10.1253 9.20618 9.75732 9.10659 9.23892 9.10659H7.51092Z" fill="white" fill-opacity="0.9"/>
<path d="M17.7497 8H19.2541L15.4397 11.3862L18.2789 15.9011H16.6729L14.48 12.2382L13.4227 13.1788L12.9221 15.9011H11.7328L13.1858 8H14.3751L13.6893 11.7292L17.7497 8Z" fill="white" fill-opacity="0.9"/>
<path d="M6.52515 8H9.5339C11.2822 8 12.018 8.80781 11.7209 10.4234C11.4218 12.0501 10.3868 12.869 8.61818 12.869H6.81903L6.26145 15.9011H5.07218L6.52515 8ZM7.51092 9.10659L7.02253 11.7624H8.75052C9.27909 11.7624 9.6857 11.6517 9.96628 11.4526C10.2489 11.2423 10.434 10.8993 10.5215 10.4234C10.609 9.9476 10.5379 9.61562 10.3305 9.41643C10.1253 9.20618 9.75732 9.10659 9.23892 9.10659H7.51092Z" stroke="white" stroke-opacity="0.9" stroke-width="0.5"/>
<path d="M17.7497 8H19.2541L15.4397 11.3862L18.2789 15.9011H16.6729L14.48 12.2382L13.4227 13.1788L12.9221 15.9011H11.7328L13.1858 8H14.3751L13.6893 11.7292L17.7497 8Z" stroke="white" stroke-opacity="0.9" stroke-width="0.5"/>
<path d="M6.52515 8H9.5339C11.2822 8 12.018 8.80781 11.7209 10.4234C11.4218 12.0501 10.3868 12.869 8.61818 12.869H6.81903L6.26145 15.9011H5.07218L6.52515 8ZM7.51092 9.10659L7.02253 11.7624H8.75052C9.27909 11.7624 9.6857 11.6517 9.96628 11.4526C10.2489 11.2423 10.434 10.8993 10.5215 10.4234C10.609 9.9476 10.5379 9.61562 10.3305 9.41643C10.1253 9.20618 9.75732 9.10659 9.23892 9.10659H7.51092Z" fill="white" fill-opacity="0.9" stroke="white" stroke-opacity="0.9" stroke-width="0.5"/>
</svg>
