<svg width="58" height="60" viewBox="0 0 58 60" fill="none" xmlns="http://www.w3.org/2000/svg">
  <path d="M23.8618 51.813C41.2188 51.813 45.8458 34.2245 45.8458 20.712H0.0458323C0.0458323 34.2245 6.50491 51.813 23.8618 51.813ZM57.6388 29.3495C56.6323 24.946 52.8968 21.818 47.6048 20.712C47.6318 21.3075 47.6498 21.907 47.6498 22.512C47.6498 23.3835 47.7333 25.312 47.6778 26.1655C50.3898 27.196 51.9308 28.029 52.5013 30.523C53.5873 35.2655 50.1242 40.2189 43.5577 41.7214C43.5577 41.7214 42.2504 44.6757 39.4822 46.612C47.8077 46.3913 59.7913 38.7529 57.6388 29.3495ZM0.0458323 53.6445C-0.0531677 53.806 0.0378323 55.3125 0.0458323 55.477C0.162832 57.7955 10.3478 59.1405 23.8618 59.1405C37.3758 59.1405 47.6773 57.91 47.6773 55.477C47.6773 55.3125 47.5468 53.634 47.6773 53.6445H0.0458323ZM27.7418 13.7025C27.7418 17.618 20.4008 18.5965 20.4008 18.5965C20.4008 18.5965 33.0973 18.5965 33.0973 13.7025C33.0973 8.808 19.1783 9.787 19.1783 5.8725C19.1783 1.957 28.9653 0 28.9653 0C28.9653 0 12.7538 -9.53674e-07 12.7538 6.851C12.7533 12.724 27.7418 10.7665 27.7418 13.7025Z" fill="url(#paint0_linear_live_ended)" />
  <defs>
    <linearGradient id="paint0_linear_live_ended" x1="41.2188" y1="-5.77551" x2="81.7188" y2="176.724" gradientUnits="userSpaceOnUse">
      <stop stop-color="white" stop-opacity="0.3" />
      <stop offset="1" stop-color="white" stop-opacity="0.9" />
    </linearGradient>
  </defs>
</svg>
