<svg width="24" height="24" viewBox="0 0 24 24" fill="none" xmlns="http://www.w3.org/2000/svg">
<mask id="path-1-inside-1_14637_10186" fill="white">
<path d="M12.0005 0.999756C12.8527 0.999777 13.6819 1.09802 14.4783 1.2819C14.7981 1.35574 15.0495 1.59707 15.1562 1.90744L15.6873 3.45239C15.7752 3.70803 15.9641 3.91476 16.203 4.04121C16.4023 4.14668 16.5971 4.25941 16.7872 4.37906C17.0163 4.52329 17.2902 4.58381 17.5559 4.53204L19.1576 4.21998C19.4794 4.15728 19.8139 4.25421 20.0377 4.49376C21.1666 5.70163 22.0268 7.16311 22.5219 8.78469C22.6176 9.09825 22.5343 9.43634 22.319 9.68364L21.2428 10.9202C21.0655 11.124 20.981 11.3908 20.9923 11.6607C20.997 11.7732 20.9996 11.8862 20.9996 11.9998C20.9996 12.1121 20.997 12.2239 20.9923 12.3353C20.9809 12.605 21.0653 12.8715 21.2425 13.0752L22.3193 14.3131C22.5344 14.5603 22.6177 14.8982 22.5221 15.2116C22.0277 16.833 21.1686 18.2946 20.0406 19.5026C19.8168 19.7423 19.4823 19.8393 19.1604 19.7766L17.558 19.4645C17.2922 19.4128 17.0182 19.4734 16.7891 19.6178C16.5984 19.738 16.4029 19.8514 16.2028 19.9573C15.964 20.0838 15.7752 20.2904 15.6872 20.546L15.1563 22.0894C15.0496 22.3996 14.7981 22.6408 14.4785 22.7149C13.6821 22.8996 12.8531 22.9997 12.0005 22.9998C11.1475 22.9998 10.3177 22.8997 9.52064 22.7149C9.201 22.6408 8.94958 22.3996 8.84292 22.0893L8.31281 20.5471C8.22493 20.2915 8.03597 20.0848 7.79711 19.9582C7.59678 19.852 7.401 19.7384 7.21 19.6179C6.98092 19.4734 6.70688 19.4128 6.44101 19.4646L4.83977 19.7766C4.51782 19.8393 4.18326 19.7422 3.95941 19.5025C2.83149 18.2945 1.97237 16.8329 1.47797 15.2116C1.3824 14.8982 1.4657 14.5603 1.68073 14.3131L2.75662 13.0762C2.93379 12.8725 3.0182 12.6059 3.00685 12.3362C3.00216 12.2246 2.99956 12.1124 2.99956 11.9998C2.99956 11.8859 3.00214 11.7726 3.00686 11.6598C3.01814 11.3898 2.93366 11.123 2.75629 10.9192L1.68103 9.68363C1.46582 9.43633 1.38247 9.09826 1.47817 8.78472C1.97308 7.16333 2.83292 5.70166 3.96141 4.49381C4.18525 4.25423 4.51967 4.15726 4.84151 4.21994L6.44424 4.53208C6.70993 4.58383 6.98379 4.52332 7.21277 4.37895C7.40292 4.25905 7.59783 4.14601 7.79723 4.04031C8.03601 3.91374 8.22495 3.70712 8.31286 3.45156L8.8438 1.90819C8.95053 1.59795 9.20195 1.35674 9.5216 1.28283C10.3183 1.09861 11.1479 0.999756 12.0005 0.999756Z"/>
</mask>
<path d="M12.0005 0.999756L12.0006 -0.700244H12.0005V0.999756ZM20.9996 11.9998L22.6996 11.9998V11.9998H20.9996ZM12.0005 22.9998V24.6998H12.0006L12.0005 22.9998ZM2.99956 11.9998H1.29956V11.9998L2.99956 11.9998ZM1.68103 9.68363L2.96343 8.56763L1.68103 9.68363ZM2.75629 10.9192L4.03869 9.80322L2.75629 10.9192ZM2.75662 13.0762L1.47394 11.9605L2.75662 13.0762ZM3.00685 12.3362L1.30835 12.4076L3.00685 12.3362ZM1.47797 15.2116L-0.148109 15.7075L1.47797 15.2116ZM1.68073 14.3131L2.96341 15.4288L1.68073 14.3131ZM4.83977 19.7766L5.16487 21.4452L4.83977 19.7766ZM3.95941 19.5025L2.71685 20.6627L3.95941 19.5025ZM6.44101 19.4646L6.76611 21.1332L6.44101 19.4646ZM8.31281 20.5471L6.70514 21.0998L8.31281 20.5471ZM7.79711 19.9582L8.59318 18.4561L7.79711 19.9582ZM9.52064 22.7149L9.9046 21.0589L9.52064 22.7149ZM15.1563 22.0894L16.7638 22.6424L15.1563 22.0894ZM17.558 19.4645L17.233 21.1332L17.558 19.4645ZM16.7891 19.6178L17.6958 21.0558L16.7891 19.6178ZM20.0406 19.5026L18.7981 18.3423L20.0406 19.5026ZM19.1604 19.7766L18.8354 21.4453L19.1604 19.7766ZM22.3193 14.3131L23.602 13.1974L22.3193 14.3131ZM22.5221 15.2116L24.1482 15.7075L22.5221 15.2116ZM20.9923 12.3353L19.2938 12.2637L20.9923 12.3353ZM21.2425 13.0752L19.9598 14.1909L21.2425 13.0752ZM21.2428 10.9202L22.5252 12.0363L21.2428 10.9202ZM20.9923 11.6607L22.6908 11.5896L20.9923 11.6607ZM22.5219 8.78469L24.1478 8.28832L22.5219 8.78469ZM22.319 9.68364L21.0367 8.56759L22.319 9.68364ZM19.1576 4.21998L18.8325 2.55135L19.1576 4.21998ZM20.0377 4.49376L21.2798 3.33301L20.0377 4.49376ZM7.79723 4.04031L8.5934 5.54235L7.79723 4.04031ZM16.7872 4.37906L15.8815 5.8177L16.7872 4.37906ZM17.5559 4.53204L17.2308 2.86342L17.5559 4.53204ZM7.21277 4.37895L8.11948 5.81695L7.21277 4.37895ZM16.2028 19.9573L15.4071 18.455L16.2028 19.9573ZM3.96141 4.49381L2.71921 3.33323L3.96141 4.49381ZM14.4783 1.2819L14.0958 2.93832L14.4783 1.2819ZM15.1562 1.90744L16.7639 1.35483L15.1562 1.90744ZM12.0005 0.999756L12.0005 2.69976C12.7216 2.69977 13.4225 2.78285 14.0958 2.93832L14.4783 1.2819L14.8608 -0.374512C13.9413 -0.586817 12.9839 -0.70022 12.0006 -0.700244L12.0005 0.999756ZM15.1562 1.90744L13.5486 2.46006L14.0796 4.00501L15.6873 3.45239L17.295 2.89977L16.7639 1.35483L15.1562 1.90744ZM16.203 4.04121L15.4078 5.54376C15.5693 5.62924 15.7273 5.72064 15.8815 5.8177L16.7872 4.37906L17.6929 2.94042C17.467 2.79818 17.2353 2.66412 16.9982 2.53867L16.203 4.04121ZM17.5559 4.53204L17.881 6.20067L19.4827 5.8886L19.1576 4.21998L18.8325 2.55135L17.2308 2.86342L17.5559 4.53204ZM20.0377 4.49376L18.7957 5.65452C19.7519 6.67767 20.4784 7.91325 20.896 9.28107L22.5219 8.78469L24.1478 8.28832C23.5753 6.41297 22.5812 4.7256 21.2798 3.33301L20.0377 4.49376ZM22.319 9.68364L21.0367 8.56759L19.9605 9.80419L21.2428 10.9202L22.5252 12.0363L23.6014 10.7997L22.319 9.68364ZM20.9923 11.6607L19.2937 11.7318C19.2976 11.8228 19.2996 11.912 19.2996 11.9998H20.9996H22.6996C22.6996 11.8604 22.6964 11.7236 22.6908 11.5896L20.9923 11.6607ZM20.9996 11.9998L19.2996 11.9997C19.2996 12.0859 19.2976 12.1738 19.2938 12.2637L20.9923 12.3353L22.6908 12.4068C22.6963 12.2741 22.6996 12.1383 22.6996 11.9998L20.9996 11.9998ZM21.2425 13.0752L19.9598 14.1909L21.0367 15.4288L22.3193 14.3131L23.602 13.1974L22.5251 11.9594L21.2425 13.0752ZM22.5221 15.2116L20.896 14.7158C20.4789 16.0837 19.7534 17.3193 18.7981 18.3423L20.0406 19.5026L21.2832 20.6628C22.5839 19.2698 23.5765 17.5823 24.1482 15.7075L22.5221 15.2116ZM19.1604 19.7766L19.4853 18.108L17.883 17.7959L17.558 19.4645L17.233 21.1332L18.8354 21.4453L19.1604 19.7766ZM16.7891 19.6178L15.8825 18.1798C15.7276 18.2774 15.5691 18.3693 15.4071 18.455L16.2028 19.9573L16.9986 21.4596C17.2367 21.3334 17.4692 21.1987 17.6958 21.0558L16.7891 19.6178ZM15.6872 20.546L14.0797 19.9929L13.5488 21.5364L15.1563 22.0894L16.7638 22.6424L17.2948 21.099L15.6872 20.546ZM14.4785 22.7149L14.0946 21.0588C13.4195 21.2153 12.7193 21.2997 12.0005 21.2998L12.0005 22.9998L12.0006 24.6998C12.9868 24.6997 13.9446 24.5838 14.8625 24.371L14.4785 22.7149ZM12.0005 22.9998V21.2998C11.2809 21.2998 10.5799 21.2154 9.9046 21.0589L9.52064 22.7149L9.13668 24.371C10.0555 24.584 11.014 24.6998 12.0005 24.6998V22.9998ZM8.84292 22.0893L10.4506 21.5366L9.92047 19.9945L8.31281 20.5471L6.70514 21.0998L7.23525 22.6419L8.84292 22.0893ZM7.79711 19.9582L8.59318 18.4561C8.43112 18.3702 8.27237 18.2781 8.11715 18.1802L7.21 19.6179L6.30285 21.0557C6.52963 21.1988 6.76245 21.3338 7.00105 21.4603L7.79711 19.9582ZM6.44101 19.4646L6.11592 17.796L4.51468 18.1079L4.83977 19.7766L5.16487 21.4452L6.76611 21.1332L6.44101 19.4646ZM3.95941 19.5025L5.20197 18.3423C4.24674 17.3193 3.52116 16.0836 3.10405 14.7158L1.47797 15.2116L-0.148109 15.7075C0.423578 17.5822 1.41625 19.2697 2.71685 20.6627L3.95941 19.5025ZM1.68073 14.3131L2.96341 15.4288L4.03929 14.1918L2.75662 13.0762L1.47394 11.9605L0.398055 13.1974L1.68073 14.3131ZM3.00685 12.3362L4.70535 12.2648C4.70156 12.1745 4.69956 12.0863 4.69956 11.9997L2.99956 11.9998L1.29956 11.9998C1.29956 12.1385 1.30276 12.2746 1.30835 12.4076L3.00685 12.3362ZM2.99956 11.9998H4.69956C4.69956 11.9116 4.70156 11.8221 4.70538 11.7308L3.00686 11.6598L1.30834 11.5888C1.30273 11.7231 1.29956 11.8602 1.29956 11.9998H2.99956ZM2.75629 10.9192L4.03869 9.80322L2.96343 8.56763L1.68103 9.68363L0.398628 10.7996L1.47389 12.0352L2.75629 10.9192ZM1.47817 8.78472L3.10412 9.28101C3.52164 7.91313 4.24784 6.67737 5.20361 5.6544L3.96141 4.49381L2.71921 3.33323C1.41801 4.72594 0.424516 6.41353 -0.147769 8.28842L1.47817 8.78472ZM4.84151 4.21994L4.51653 5.88859L6.11926 6.20073L6.44424 4.53208L6.76921 2.86343L5.16649 2.55129L4.84151 4.21994ZM7.21277 4.37895L8.11948 5.81695C8.27408 5.71948 8.43213 5.62783 8.5934 5.54235L7.79723 4.04031L7.00106 2.53827C6.76353 2.66418 6.53177 2.79861 6.30605 2.94094L7.21277 4.37895ZM8.31286 3.45156L9.9204 4.00457L10.4513 2.46121L8.8438 1.90819L7.23626 1.35518L6.70532 2.89855L8.31286 3.45156ZM9.5216 1.28283L9.90457 2.93913C10.5787 2.78327 11.2798 2.69976 12.0005 2.69976V0.999756V-0.700244C11.016 -0.700244 10.058 -0.586052 9.13862 -0.373467L9.5216 1.28283ZM8.8438 1.90819L10.4513 2.46121C10.3821 2.66251 10.1987 2.87112 9.90457 2.93913L9.5216 1.28283L9.13862 -0.373467C8.20518 -0.157633 7.51896 0.533398 7.23626 1.35518L8.8438 1.90819ZM1.68103 9.68363L2.96343 8.56763C3.10295 8.72796 3.19255 8.99131 3.10412 9.28101L1.47817 8.78472L-0.147769 8.28842C-0.427607 9.20522 -0.171307 10.1447 0.398628 10.7996L1.68103 9.68363ZM3.00686 11.6598L4.70538 11.7308C4.73314 11.0665 4.52666 10.364 4.03869 9.80322L2.75629 10.9192L1.47389 12.0352C1.34066 11.8821 1.30314 11.7132 1.30834 11.5888L3.00686 11.6598ZM2.75662 13.0762L4.03929 14.1918C4.52678 13.6314 4.73329 12.9292 4.70535 12.2648L3.00685 12.3362L1.30835 12.4076C1.3031 12.2827 1.3408 12.1136 1.47394 11.9605L2.75662 13.0762ZM1.47797 15.2116L3.10405 14.7158C3.19234 15.0053 3.10283 15.2685 2.96341 15.4288L1.68073 14.3131L0.398055 13.1974C-0.171433 13.8521 -0.427546 14.7911 -0.148109 15.7075L1.47797 15.2116ZM4.83977 19.7766L4.51468 18.1079C4.72363 18.0672 4.99595 18.1217 5.20197 18.3423L3.95941 19.5025L2.71685 20.6627C3.37057 21.3628 4.31201 21.6113 5.16487 21.4452L4.83977 19.7766ZM7.21 19.6179L8.11715 18.1802C7.55775 17.8272 6.84698 17.6535 6.11592 17.796L6.44101 19.4646L6.76611 21.1332C6.56679 21.172 6.4041 21.1196 6.30285 21.0557L7.21 19.6179ZM8.31281 20.5471L9.92047 19.9945C9.67876 19.2913 9.17466 18.7643 8.59318 18.4561L7.79711 19.9582L7.00105 21.4603C6.89729 21.4053 6.7711 21.2916 6.70514 21.0998L8.31281 20.5471ZM9.52064 22.7149L9.9046 21.0589C10.1981 21.1269 10.3813 21.3351 10.4506 21.5366L8.84292 22.0893L7.23525 22.6419C7.51784 23.464 8.20393 24.1548 9.13668 24.371L9.52064 22.7149ZM15.1563 22.0894L13.5488 21.5364C13.6181 21.3349 13.8013 21.1268 14.0946 21.0588L14.4785 22.7149L14.8625 24.371C15.795 24.1548 16.4811 23.4643 16.7638 22.6424L15.1563 22.0894ZM17.558 19.4645L17.883 17.7959C17.152 17.6535 16.4416 17.8272 15.8825 18.1798L16.7891 19.6178L17.6958 21.0558C17.5949 21.1195 17.4324 21.172 17.233 21.1332L17.558 19.4645ZM20.0406 19.5026L18.7981 18.3423C19.0041 18.1217 19.2764 18.0673 19.4853 18.108L19.1604 19.7766L18.8354 21.4453C19.6882 21.6113 20.6295 21.3628 21.2832 20.6628L20.0406 19.5026ZM22.3193 14.3131L21.0367 15.4288C20.8973 15.2685 20.8077 15.0053 20.896 14.7158L22.5221 15.2116L24.1482 15.7075C24.4276 14.7911 24.1715 13.8521 23.602 13.1974L22.3193 14.3131ZM20.9923 12.3353L19.2938 12.2637C19.2658 12.9282 19.4724 13.6305 19.9598 14.1909L21.2425 13.0752L22.5251 11.9594C22.6583 12.1125 22.696 12.2817 22.6908 12.4068L20.9923 12.3353ZM21.2428 10.9202L19.9605 9.80419C19.4725 10.3649 19.2659 11.0674 19.2937 11.7318L20.9923 11.6607L22.6908 11.5896C22.696 11.7141 22.6584 11.8832 22.5252 12.0363L21.2428 10.9202ZM22.5219 8.78469L20.896 9.28107C20.8075 8.99129 20.8971 8.72791 21.0367 8.56759L22.319 9.68364L23.6014 10.7997C24.1714 10.1448 24.4277 9.20521 24.1478 8.28832L22.5219 8.78469ZM19.1576 4.21998L19.4827 5.8886C19.2738 5.9293 19.0017 5.87491 18.7957 5.65452L20.0377 4.49376L21.2798 3.33301C20.6261 2.63352 19.6851 2.38525 18.8325 2.55135L19.1576 4.21998ZM7.79723 4.04031L8.5934 5.54235C9.17457 5.2343 9.67858 4.7075 9.9204 4.00457L8.31286 3.45156L6.70532 2.89855C6.77131 2.70673 6.89746 2.59319 7.00106 2.53827L7.79723 4.04031ZM16.7872 4.37906L15.8815 5.8177C16.4402 6.16947 17.1503 6.34304 17.881 6.20067L17.5559 4.53204L17.2308 2.86342C17.4301 2.82459 17.5923 2.87711 17.6929 2.94042L16.7872 4.37906ZM6.44424 4.53208L6.11926 6.20073C6.84983 6.34301 7.5602 6.1696 8.11948 5.81695L7.21277 4.37895L6.30605 2.94094C6.40738 2.87704 6.57003 2.82464 6.76921 2.86343L6.44424 4.53208ZM15.6873 3.45239L14.0796 4.00501C14.3213 4.70809 14.8255 5.23555 15.4078 5.54376L16.203 4.04121L16.9982 2.53867C17.1028 2.59398 17.229 2.70798 17.295 2.89977L15.6873 3.45239ZM16.2028 19.9573L15.4071 18.455C14.8255 18.7631 14.3215 19.2901 14.0797 19.9929L15.6872 20.546L17.2948 21.099C17.2288 21.2907 17.1026 21.4045 16.9986 21.4596L16.2028 19.9573ZM3.96141 4.49381L5.20361 5.6544C4.99761 5.87487 4.72542 5.92927 4.51653 5.88859L4.84151 4.21994L5.16649 2.55129C4.31393 2.38525 3.37289 2.63358 2.71921 3.33323L3.96141 4.49381ZM14.4783 1.2819L14.0958 2.93832C13.8012 2.8703 13.6178 2.66138 13.5486 2.46006L15.1562 1.90744L16.7639 1.35483C16.4813 0.532772 15.7949 -0.158814 14.8608 -0.374512L14.4783 1.2819Z" fill="white" fill-opacity="0.9" mask="url(#path-1-inside-1_14637_10186)"/>
<circle cx="12" cy="12" r="3.65" stroke="white" stroke-opacity="0.9" stroke-width="1.7"/>
<circle cx="12" cy="12" r="1.5" fill="white" fill-opacity="0.9"/>
</svg>
