<svg width="20" height="20" viewBox="0 0 20 20" fill="none" xmlns="http://www.w3.org/2000/svg">
<g clip-path="url(#clip0_14182_11568)">
<path d="M3.88577 2.89288C1.88917 4.61213 0.625 7.15839 0.625 9.99991C0.625 12.8407 1.8885 15.3863 3.88418 17.1056L4.6949 16.1541C2.96804 14.6641 1.875 12.4597 1.875 9.99991C1.875 7.5394 2.96871 5.33435 4.69648 3.84438L3.88577 2.89288Z" fill="white" fill-opacity="0.9"/>
<path d="M15.3028 3.84377L16.1135 2.89227C18.1105 4.61153 19.375 7.15805 19.375 9.99991C19.375 12.841 18.1112 15.3869 16.1151 17.1062L15.3044 16.1547C17.0317 14.6647 18.125 12.46 18.125 9.99991C18.125 7.53907 17.031 5.33375 15.3028 3.84377Z" fill="white" fill-opacity="0.9"/>
<path d="M6.31774 5.74754C5.12771 6.77893 4.375 8.30151 4.375 9.9999C4.375 11.6977 5.1272 13.2198 6.31653 14.2512L7.12727 13.2997C6.20675 12.4976 5.625 11.3167 5.625 9.9999C5.625 8.68253 6.20726 7.50114 7.12847 6.69907L6.31774 5.74754Z" fill="white" fill-opacity="0.9"/>
<path d="M12.8708 6.69846L13.6816 5.74694C14.872 6.77833 15.625 8.30118 15.625 9.9999C15.625 11.6981 14.8725 13.2204 13.6828 14.2518L12.872 13.3003C13.793 12.4982 14.375 11.317 14.375 9.9999C14.375 8.68219 13.7924 7.50054 12.8708 6.69846Z" fill="white" fill-opacity="0.9"/>
<path d="M11.625 9.99991C11.625 10.8974 10.8975 11.6249 10 11.6249C9.10255 11.6249 8.37502 10.8974 8.37502 9.99991C8.37502 9.10244 9.10255 8.37491 10 8.37491C10.8975 8.37491 11.625 9.10244 11.625 9.99991Z" fill="white" fill-opacity="0.9"/>
</g>
<defs>
<clipPath id="clip0_14182_11568">
<rect width="20" height="19.9988" fill="white"/>
</clipPath>
</defs>
</svg>
