<svg width="14" height="14" viewBox="0 0 14 14" fill="none" xmlns="http://www.w3.org/2000/svg">
<path d="M8.88434 9.36585L9.49509 8.7394C8.77368 8.00545 7.89526 7.60266 6.98672 7.60266C6.08929 7.60266 5.22113 7.99583 4.50464 8.71302L5.11517 9.33931C5.69537 8.7543 6.35718 8.47766 6.98672 8.47766C7.62589 8.47766 8.29794 8.76269 8.88434 9.36585Z" fill="#E6594C"/>
<path d="M7.87497 10.9375C7.87497 11.4208 7.48318 11.8125 6.99997 11.8125C6.51675 11.8125 6.12497 11.4208 6.12497 10.9375C6.12497 10.4543 6.51675 10.0625 6.99997 10.0625C7.48318 10.0625 7.87497 10.4543 7.87497 10.9375Z" fill="#E6594C"/>
<path d="M10.6562 7.54885L11.2672 6.92219C10.0651 5.68376 8.55435 4.99878 6.98743 4.99878C5.4314 4.99878 3.93069 5.6742 2.73291 6.89613L3.34387 7.52268C4.40002 6.43801 5.69095 5.87378 6.98743 5.87378C8.29416 5.87378 9.59512 6.44709 10.6562 7.54885Z" fill="#676A70"/>
<path d="M12.3664 5.79476L12.9776 5.16805C11.3134 3.44779 9.1911 2.49316 6.98758 2.49316C4.79495 2.49316 2.68286 3.43823 1.02258 5.1422L1.63354 5.76886C3.1492 4.20519 5.05002 3.36816 6.98758 3.36816C8.93582 3.36816 10.8467 4.21443 12.3664 5.79476Z" fill="#676A70"/>
</svg>
