<svg width="20" height="20" viewBox="0 0 20 20" fill="none" xmlns="http://www.w3.org/2000/svg">
<path d="M3.88965 4.37524H2.5V15.6252H8.78125C8.82408 16.0564 8.91118 16.4744 9.03711 16.8752H2.5C1.80969 16.8752 1.25008 16.3155 1.25 15.6252V4.37524C1.25 3.68489 1.80964 3.12524 2.5 3.12524H2.63965L3.88965 4.37524ZM11.2686 9.9856C10.9331 10.2356 10.6245 10.5193 10.3457 10.8303L1.75293 2.23755L2.63672 1.35376L11.2686 9.9856ZM13.75 3.12524C14.4404 3.12524 15 3.68489 15 4.37524V5.77173L17.5732 4.82446C18.1443 4.61439 18.7499 5.03724 18.75 5.64575V9.99927C18.3656 9.71051 17.946 9.46664 17.5 9.27173V6.18384L15 7.10376V8.75024C14.5719 8.75024 14.1539 8.79325 13.75 8.87524V4.37524H7.42578L6.17578 3.12524H13.75Z" fill="#FF7200"/>
<path d="M20 15C20 17.7614 17.7614 20 15 20C12.2386 20 10 17.7614 10 15C10 12.2386 12.2386 10 15 10C17.7614 10 20 12.2386 20 15Z" fill="#FF7200"/>
<path d="M15.6235 11.875H14.3735V15.625H15.6235V11.875ZM15.7505 16.625H14.2505V18.125H15.7505V16.625Z" fill="white"/>
</svg>
