{
  "accessors": [
    {
      "bufferView": 0,
      "componentType": 5126,
      "count": 5719,
      "max": [
        0.08343115448951721,
        0.0617452971637249,
        0.11599591374397278
      ],
      "min": [
        -0.08183712512254715,
        0.017235074192285538,
        -0.016414370387792587
      ],
      "type": "VEC3"
    },
    {
      "bufferView": 1,
      "componentType": 5126,
      "count": 5719,
      "type": "VEC3"
    },
    {
      "bufferView": 2,
      "componentType": 5126,
      "count": 5719,
      "type": "VEC2"
    },
    {
      "bufferView": 3,
      "componentType": 5123,
      "count": 26304,
      "type": "SCALAR"
    },
    {
      "bufferView": 4,
      "componentType": 5126,
      "count": 116,
      "max": [
        0.05568782985210419,
        0.06096777319908142,
        0.1132718101143837
      ],
      "min": [
        -0.05481778830289841,
        0.01766805350780487,
        0.10768774896860123
      ],
      "type": "VEC3"
    },
    {
      "bufferView": 5,
      "componentType": 5126,
      "count": 116,
      "type": "VEC3"
    },
    {
      "bufferView": 6,
      "componentType": 5126,
      "count": 116,
      "type": "VEC2"
    },
    {
      "bufferView": 7,
      "componentType": 5123,
      "count": 327,
      "type": "SCALAR"
    }
  ],
  "asset": {
    "generator": "Khronos glTF Blender I/O v1.2.75",
    "version": "2.0"
  },
  "bufferViews": [
    {
      "buffer": 0,
      "byteLength": 68628,
      "byteOffset": 0
    },
    {
      "buffer": 0,
      "byteLength": 68628,
      "byteOffset": 68628
    },
    {
      "buffer": 0,
      "byteLength": 45752,
      "byteOffset": 137256
    },
    {
      "buffer": 0,
      "byteLength": 52608,
      "byteOffset": 183008
    },
    {
      "buffer": 0,
      "byteLength": 1392,
      "byteOffset": 235616
    },
    {
      "buffer": 0,
      "byteLength": 1392,
      "byteOffset": 237008
    },
    {
      "buffer": 0,
      "byteLength": 928,
      "byteOffset": 238400
    },
    {
      "buffer": 0,
      "byteLength": 656,
      "byteOffset": 239328
    },
    {
      "buffer": 0,
      "byteLength": 246080,
      "byteOffset": 239984
    }
  ],
  "buffers": [
    {
      "byteLength": 486064,
      "uri": "3dc27d57-26c4-4086-9ad8-10f1c999b17b"
    }
  ],
  "images": [
    {
      "name": "XiKuangYanJing_BaseColor",
      "uri": "99cb25ad-c641-4e16-946c-f646b5f5f780"
    }
  ],
  "materials": [
    {
      "doubleSided": true,
      "emissiveFactor": [
        0,
        0,
        0
      ],
      "name": "Mat.head",
      "pbrMetallicRoughness": {
        "baseColorFactor": [
          0.27028611302375793,
          0.27028611302375793,
          0.27028611302375793,
          1
        ],
        "metallicFactor": 0,
        "roughnessFactor": 1
      }
    },
    {
      "alphaMode": "BLEND",
      "doubleSided": true,
      "emissiveFactor": [
        0,
        0,
        0
      ],
      "name": "Mat.Route666",
      "pbrMetallicRoughness": {
        "baseColorTexture": {
          "index": 0,
          "texCoord": 0
        },
        "metallicFactor": 0,
        "roughnessFactor": 0.5
      }
    }
  ],
  "meshes": [
    {
      "name": "网格",
      "primitives": [
        {
          "attributes": {
            "NORMAL": 1,
            "POSITION": 0,
            "TEXCOORD_0": 2
          },
          "indices": 3,
          "material": 0
        }
      ]
    },
    {
      "name": "网格.001",
      "primitives": [
        {
          "attributes": {
            "NORMAL": 5,
            "POSITION": 4,
            "TEXCOORD_0": 6
          },
          "indices": 7,
          "material": 1
        }
      ]
    }
  ],
  "nodes": [
    {
      "mesh": 0,
      "name": "XiKuangYanJing.001"
    },
    {
      "mesh": 1,
      "name": "jk"
    }
  ],
  "scene": 0,
  "scenes": [
    {
      "name": "Scene",
      "nodes": [
        0,
        1
      ]
    }
  ],
  "textures": [
    {
      "source": 0
    }
  ]
}
